<svg height="15000" width="1000"><polygon style="fill:rgb(255,255,255);stroke-width:3;stroke:rgb(0,0,0" points="50,50,750,50,750,350,50,350"></polygon><text x="400" y="200" fill="black" font-size="3.5em" text-anchor="middle" font-family="Helvetica">Aird Cairn Russet</text><text x="700" y="300" fill="black" font-size="2em" text-anchor="end" font-family="Helvetica">EARLY-MID OCT</text><text x="100" y="300" fill="black" font-size="2em" font-family="Helvetica">A - EATER</text><circle stroke="black" stroke-width="3" fill="white" cx="100" cy="100" r="20"></circle><circle stroke="black" stroke-width="3" fill="white" cx="700" cy="100" r="20"></circle><polygon style="fill:rgb(255,255,255);stroke-width:3;stroke:rgb(0,0,0" points="50,400,750,400,750,700,50,700"></polygon><text x="400" y="550" fill="black" font-size="3.5em" text-anchor="middle" font-family="Helvetica">Beauty of Moray</text><text x="700" y="650" fill="black" font-size="2em" text-anchor="end" font-family="Helvetica">LATE AUG - EARLY SEP</text><text x="100" y="650" fill="black" font-size="2em" font-family="Helvetica">A - COOKER</text><circle stroke="black" stroke-width="3" fill="white" cx="100" cy="450" r="20"></circle><circle stroke="black" stroke-width="3" fill="white" cx="700" cy="450" r="20"></circle><polygon style="fill:rgb(255,255,255);stroke-width:3;stroke:rgb(0,0,0" points="50,750,750,750,750,1050,50,1050"></polygon><text x="400" y="900" fill="black" font-size="3.5em" text-anchor="middle" font-family="Helvetica">Blenheim Orange</text><text x="700" y="1000" fill="black" font-size="2em" text-anchor="end" font-family="Helvetica">LATE SEP - EARLY OCT</text><text x="100" y="1000" fill="black" font-size="2em" font-family="Helvetica">A - EATER</text><circle stroke="black" stroke-width="3" fill="white" cx="100" cy="800" r="20"></circle><circle stroke="black" stroke-width="3" fill="white" cx="700" cy="800" r="20"></circle><polygon style="fill:rgb(255,255,255);stroke-width:3;stroke:rgb(0,0,0" points="50,1100,750,1100,750,1400,50,1400"></polygon><text x="400" y="1250" fill="black" font-size="3.5em" text-anchor="middle" font-family="Helvetica">Bloody Ploughman</text><text x="700" y="1350" fill="black" font-size="2em" text-anchor="end" font-family="Helvetica">LATE SEP - EARLY OCT</text><text x="100" y="1350" fill="black" font-size="2em" font-family="Helvetica">A - EATER</text><circle stroke="black" stroke-width="3" fill="white" cx="100" cy="1150" r="20"></circle><circle stroke="black" stroke-width="3" fill="white" cx="700" cy="1150" r="20"></circle><polygon style="fill:rgb(255,255,255);stroke-width:3;stroke:rgb(0,0,0" points="50,1450,750,1450,750,1750,50,1750"></polygon><text x="400" y="1600" fill="black" font-size="3.5em" text-anchor="middle" font-family="Helvetica">Charles Ross</text><text x="700" y="1700" fill="black" font-size="2em" text-anchor="end" font-family="Helvetica">EARLY-MID SEP</text><text x="100" y="1700" fill="black" font-size="2em" font-family="Helvetica">A - EATER/COOKER</text><circle stroke="black" stroke-width="3" fill="white" cx="100" cy="1500" r="20"></circle><circle stroke="black" stroke-width="3" fill="white" cx="700" cy="1500" r="20"></circle><polygon style="fill:rgb(255,255,255);stroke-width:3;stroke:rgb(0,0,0" points="50,1800,750,1800,750,2100,50,2100"></polygon><text x="400" y="1950" fill="black" font-size="3.5em" text-anchor="middle" font-family="Helvetica">Chivers Delight</text><text x="700" y="2050" fill="black" font-size="2em" text-anchor="end" font-family="Helvetica">LATE SEP - EARLY OCT</text><text x="100" y="2050" fill="black" font-size="2em" font-family="Helvetica">A - EATER</text><circle stroke="black" stroke-width="3" fill="white" cx="100" cy="1850" r="20"></circle><circle stroke="black" stroke-width="3" fill="white" cx="700" cy="1850" r="20"></circle><polygon style="fill:rgb(255,255,255);stroke-width:3;stroke:rgb(0,0,0" points="50,2150,750,2150,750,2450,50,2450"></polygon><text x="400" y="2300" fill="black" font-size="3.5em" text-anchor="middle" font-family="Helvetica">Christmas Pippin</text><text x="700" y="2400" fill="black" font-size="2em" text-anchor="end" font-family="Helvetica">LATE SEP - EARLY OCT</text><text x="100" y="2400" fill="black" font-size="2em" font-family="Helvetica">A - EATER</text><circle stroke="black" stroke-width="3" fill="white" cx="100" cy="2200" r="20"></circle><circle stroke="black" stroke-width="3" fill="white" cx="700" cy="2200" r="20"></circle><polygon style="fill:rgb(255,255,255);stroke-width:3;stroke:rgb(0,0,0" points="50,2500,750,2500,750,2800,50,2800"></polygon><text x="400" y="2650" fill="black" font-size="3.5em" text-anchor="middle" font-family="Helvetica">Cox</text><text x="700" y="2750" fill="black" font-size="2em" text-anchor="end" font-family="Helvetica">LATE SEP - EARLY OCT</text><text x="100" y="2750" fill="black" font-size="2em" font-family="Helvetica">A - EATER</text><circle stroke="black" stroke-width="3" fill="white" cx="100" cy="2550" r="20"></circle><circle stroke="black" stroke-width="3" fill="white" cx="700" cy="2550" r="20"></circle><polygon style="fill:rgb(255,255,255);stroke-width:3;stroke:rgb(0,0,0" points="50,2850,750,2850,750,3150,50,3150"></polygon><text x="400" y="3000" fill="black" font-size="3.5em" text-anchor="middle" font-family="Helvetica">Crawley Beauty</text><text x="700" y="3100" fill="black" font-size="2em" text-anchor="end" font-family="Helvetica">EARLY-MID OCT</text><text x="100" y="3100" fill="black" font-size="2em" font-family="Helvetica">A - COOKER</text><circle stroke="black" stroke-width="3" fill="white" cx="100" cy="2900" r="20"></circle><circle stroke="black" stroke-width="3" fill="white" cx="700" cy="2900" r="20"></circle><polygon style="fill:rgb(255,255,255);stroke-width:3;stroke:rgb(0,0,0" points="50,3200,750,3200,750,3500,50,3500"></polygon><text x="400" y="3350" fill="black" font-size="3.5em" text-anchor="middle" font-family="Helvetica">Cutler Grieve</text><text x="700" y="3450" fill="black" font-size="2em" text-anchor="end" font-family="Helvetica">EARLY-MID SEP</text><text x="100" y="3450" fill="black" font-size="2em" font-family="Helvetica">A - EATER</text><circle stroke="black" stroke-width="3" fill="white" cx="100" cy="3250" r="20"></circle><circle stroke="black" stroke-width="3" fill="white" cx="700" cy="3250" r="20"></circle><polygon style="fill:rgb(255,255,255);stroke-width:3;stroke:rgb(0,0,0" points="50,3550,750,3550,750,3850,50,3850"></polygon><text x="400" y="3700" fill="black" font-size="3.5em" text-anchor="middle" font-family="Helvetica">Discovery</text><text x="700" y="3800" fill="black" font-size="2em" text-anchor="end" font-family="Helvetica">LATE AUG - EARLY SEP</text><text x="100" y="3800" fill="black" font-size="2em" font-family="Helvetica">A - EATER</text><circle stroke="black" stroke-width="3" fill="white" cx="100" cy="3600" r="20"></circle><circle stroke="black" stroke-width="3" fill="white" cx="700" cy="3600" r="20"></circle><polygon style="fill:rgb(255,255,255);stroke-width:3;stroke:rgb(0,0,0" points="50,3900,750,3900,750,4200,50,4200"></polygon><text x="400" y="4050" fill="black" font-size="3.5em" text-anchor="middle" font-family="Helvetica">Egremont Russet</text><text x="700" y="4150" fill="black" font-size="2em" text-anchor="end" font-family="Helvetica">EARLY-MID OCT</text><text x="100" y="4150" fill="black" font-size="2em" font-family="Helvetica">A - EATER</text><circle stroke="black" stroke-width="3" fill="white" cx="100" cy="3950" r="20"></circle><circle stroke="black" stroke-width="3" fill="white" cx="700" cy="3950" r="20"></circle><polygon style="fill:rgb(255,255,255);stroke-width:3;stroke:rgb(0,0,0" points="50,4250,750,4250,750,4550,50,4550"></polygon><text x="400" y="4400" fill="black" font-size="3.5em" text-anchor="middle" font-family="Helvetica">Galloway Pippin</text><text x="700" y="4500" fill="black" font-size="2em" text-anchor="end" font-family="Helvetica">MID-LATE SEP</text><text x="100" y="4500" fill="black" font-size="2em" font-family="Helvetica">A - EATER/COOKER</text><circle stroke="black" stroke-width="3" fill="white" cx="100" cy="4300" r="20"></circle><circle stroke="black" stroke-width="3" fill="white" cx="700" cy="4300" r="20"></circle><polygon style="fill:rgb(255,255,255);stroke-width:3;stroke:rgb(0,0,0" points="50,4600,750,4600,750,4900,50,4900"></polygon><text x="400" y="4750" fill="black" font-size="3.5em" text-anchor="middle" font-family="Helvetica">Katy</text><text x="700" y="4850" fill="black" font-size="2em" text-anchor="end" font-family="Helvetica">EARLY-MID SEP</text><text x="100" y="4850" fill="black" font-size="2em" font-family="Helvetica">A - EATER</text><circle stroke="black" stroke-width="3" fill="white" cx="100" cy="4650" r="20"></circle><circle stroke="black" stroke-width="3" fill="white" cx="700" cy="4650" r="20"></circle><polygon style="fill:rgb(255,255,255);stroke-width:3;stroke:rgb(0,0,0" points="50,4950,750,4950,750,5250,50,5250"></polygon><text x="400" y="5100" fill="black" font-size="3.5em" text-anchor="middle" font-family="Helvetica">Laxton's Fortune</text><text x="700" y="5200" fill="black" font-size="2em" text-anchor="end" font-family="Helvetica">EARLY-MID SEP</text><text x="100" y="5200" fill="black" font-size="2em" font-family="Helvetica">A - EATER</text><circle stroke="black" stroke-width="3" fill="white" cx="100" cy="5000" r="20"></circle><circle stroke="black" stroke-width="3" fill="white" cx="700" cy="5000" r="20"></circle><polygon style="fill:rgb(255,255,255);stroke-width:3;stroke:rgb(0,0,0" points="50,5300,750,5300,750,5600,50,5600"></polygon><text x="400" y="5450" fill="black" font-size="3.5em" text-anchor="middle" font-family="Helvetica">Meridian</text><text x="700" y="5550" fill="black" font-size="2em" text-anchor="end" font-family="Helvetica">MID-LATE SEP</text><text x="100" y="5550" fill="black" font-size="2em" font-family="Helvetica">A - EATER</text><circle stroke="black" stroke-width="3" fill="white" cx="100" cy="5350" r="20"></circle><circle stroke="black" stroke-width="3" fill="white" cx="700" cy="5350" r="20"></circle><polygon style="fill:rgb(255,255,255);stroke-width:3;stroke:rgb(0,0,0" points="50,5650,750,5650,750,5950,50,5950"></polygon><text x="400" y="5800" fill="black" font-size="3.5em" text-anchor="middle" font-family="Helvetica">Red Sleeves</text><text x="700" y="5900" fill="black" font-size="2em" text-anchor="end" font-family="Helvetica">EARLY-MID SEP</text><text x="100" y="5900" fill="black" font-size="2em" font-family="Helvetica">A - EATER</text><circle stroke="black" stroke-width="3" fill="white" cx="100" cy="5700" r="20"></circle><circle stroke="black" stroke-width="3" fill="white" cx="700" cy="5700" r="20"></circle><polygon style="fill:rgb(255,255,255);stroke-width:3;stroke:rgb(0,0,0" points="50,6000,750,6000,750,6300,50,6300"></polygon><text x="400" y="6150" fill="black" font-size="3.5em" text-anchor="middle" font-family="Helvetica">Scotch Bridget</text><text x="700" y="6250" fill="black" font-size="2em" text-anchor="end" font-family="Helvetica">EARLY-MID OCT</text><text x="100" y="6250" fill="black" font-size="2em" font-family="Helvetica">A - COOKER/JUICER</text><circle stroke="black" stroke-width="3" fill="white" cx="100" cy="6050" r="20"></circle><circle stroke="black" stroke-width="3" fill="white" cx="700" cy="6050" r="20"></circle><polygon style="fill:rgb(255,255,255);stroke-width:3;stroke:rgb(0,0,0" points="50,6350,750,6350,750,6650,50,6650"></polygon><text x="400" y="6500" fill="black" font-size="3.5em" text-anchor="middle" font-family="Helvetica">Scotch Dumpling</text><text x="700" y="6600" fill="black" font-size="2em" text-anchor="end" font-family="Helvetica">LATE AUG - EARLY SEP</text><text x="100" y="6600" fill="black" font-size="2em" font-family="Helvetica">A - COOKER</text><circle stroke="black" stroke-width="3" fill="white" cx="100" cy="6400" r="20"></circle><circle stroke="black" stroke-width="3" fill="white" cx="700" cy="6400" r="20"></circle><polygon style="fill:rgb(255,255,255);stroke-width:3;stroke:rgb(0,0,0" points="50,6700,750,6700,750,7000,50,7000"></polygon><text x="400" y="6850" fill="black" font-size="3.5em" text-anchor="middle" font-family="Helvetica">Stobo Castle</text><text x="700" y="6950" fill="black" font-size="2em" text-anchor="end" font-family="Helvetica">LATE AUG - EARLY SEP</text><text x="100" y="6950" fill="black" font-size="2em" font-family="Helvetica">A - COOKER</text><circle stroke="black" stroke-width="3" fill="white" cx="100" cy="6750" r="20"></circle><circle stroke="black" stroke-width="3" fill="white" cx="700" cy="6750" r="20"></circle><polygon style="fill:rgb(255,255,255);stroke-width:3;stroke:rgb(0,0,0" points="50,7050,750,7050,750,7350,50,7350"></polygon><text x="400" y="7200" fill="black" font-size="3.5em" text-anchor="middle" font-family="Helvetica">Sunset</text><text x="700" y="7300" fill="black" font-size="2em" text-anchor="end" font-family="Helvetica">LATE SEP - EARLY OCT</text><text x="100" y="7300" fill="black" font-size="2em" font-family="Helvetica">A - JUICER</text><circle stroke="black" stroke-width="3" fill="white" cx="100" cy="7100" r="20"></circle><circle stroke="black" stroke-width="3" fill="white" cx="700" cy="7100" r="20"></circle><polygon style="fill:rgb(255,255,255);stroke-width:3;stroke:rgb(0,0,0" points="50,7400,750,7400,750,7700,50,7700"></polygon><text x="400" y="7550" fill="black" font-size="3.5em" text-anchor="middle" font-family="Helvetica">Tydemans Late Orange</text><text x="700" y="7650" fill="black" font-size="2em" text-anchor="end" font-family="Helvetica">EARLY-MID OCT</text><text x="100" y="7650" fill="black" font-size="2em" font-family="Helvetica">A - EATER/JUICER</text><circle stroke="black" stroke-width="3" fill="white" cx="100" cy="7450" r="20"></circle><circle stroke="black" stroke-width="3" fill="white" cx="700" cy="7450" r="20"></circle><polygon style="fill:rgb(255,255,255);stroke-width:3;stroke:rgb(0,0,0" points="50,7750,750,7750,750,8050,50,8050"></polygon><text x="400" y="7900" fill="black" font-size="3.5em" text-anchor="middle" font-family="Helvetica">Worcester Pearmain</text><text x="700" y="8000" fill="black" font-size="2em" text-anchor="end" font-family="Helvetica">EARLY-MID SEP</text><text x="100" y="8000" fill="black" font-size="2em" font-family="Helvetica">A - EATER</text><circle stroke="black" stroke-width="3" fill="white" cx="100" cy="7800" r="20"></circle><circle stroke="black" stroke-width="3" fill="white" cx="700" cy="7800" r="20"></circle><polygon style="fill:rgb(255,255,255);stroke-width:3;stroke:rgb(0,0,0" points="50,8100,750,8100,750,8400,50,8400"></polygon><text x="400" y="8250" fill="black" font-size="3.5em" text-anchor="middle" font-family="Helvetica">Concorde</text><text x="700" y="8350" fill="black" font-size="2em" text-anchor="end" font-family="Helvetica">WEEK 1 OCT</text><text x="100" y="8350" fill="black" font-size="2em" font-family="Helvetica">P - EATER</text><circle stroke="black" stroke-width="3" fill="white" cx="100" cy="8150" r="20"></circle><circle stroke="black" stroke-width="3" fill="white" cx="700" cy="8150" r="20"></circle><polygon style="fill:rgb(255,255,255);stroke-width:3;stroke:rgb(0,0,0" points="50,8450,750,8450,750,8750,50,8750"></polygon><text x="400" y="8600" fill="black" font-size="3.5em" text-anchor="middle" font-family="Helvetica">Conference</text><text x="700" y="8700" fill="black" font-size="2em" text-anchor="end" font-family="Helvetica">WEEK 1 OCT</text><text x="100" y="8700" fill="black" font-size="2em" font-family="Helvetica">P - EATER</text><circle stroke="black" stroke-width="3" fill="white" cx="100" cy="8500" r="20"></circle><circle stroke="black" stroke-width="3" fill="white" cx="700" cy="8500" r="20"></circle><polygon style="fill:rgb(255,255,255);stroke-width:3;stroke:rgb(0,0,0" points="50,8800,750,8800,750,9100,50,9100"></polygon><text x="400" y="8950" fill="black" font-size="3.5em" text-anchor="middle" font-family="Helvetica">Doyenne du Comice</text><text x="700" y="9050" fill="black" font-size="2em" text-anchor="end" font-family="Helvetica">WEEK 2 OCT</text><text x="100" y="9050" fill="black" font-size="2em" font-family="Helvetica">P - EATER</text><circle stroke="black" stroke-width="3" fill="white" cx="100" cy="8850" r="20"></circle><circle stroke="black" stroke-width="3" fill="white" cx="700" cy="8850" r="20"></circle><polygon style="fill:rgb(255,255,255);stroke-width:3;stroke:rgb(0,0,0" points="50,9150,750,9150,750,9450,50,9450"></polygon><text x="400" y="9300" fill="black" font-size="3.5em" text-anchor="middle" font-family="Helvetica">Beurre Hardy</text><text x="700" y="9400" fill="black" font-size="2em" text-anchor="end" font-family="Helvetica">WEEK 3 OCT</text><text x="100" y="9400" fill="black" font-size="2em" font-family="Helvetica">P - EATER</text><circle stroke="black" stroke-width="3" fill="white" cx="100" cy="9200" r="20"></circle><circle stroke="black" stroke-width="3" fill="white" cx="700" cy="9200" r="20"></circle><polygon style="fill:rgb(255,255,255);stroke-width:3;stroke:rgb(0,0,0" points="50,9500,750,9500,750,9800,50,9800"></polygon><text x="400" y="9650" fill="black" font-size="3.5em" text-anchor="middle" font-family="Helvetica">Drummond (red pear)</text><text x="700" y="9750" fill="black" font-size="2em" text-anchor="end" font-family="Helvetica">OCT</text><text x="100" y="9750" fill="black" font-size="2em" font-family="Helvetica">P - EATER</text><circle stroke="black" stroke-width="3" fill="white" cx="100" cy="9550" r="20"></circle><circle stroke="black" stroke-width="3" fill="white" cx="700" cy="9550" r="20"></circle><polygon style="fill:rgb(255,255,255);stroke-width:3;stroke:rgb(0,0,0" points="50,9850,750,9850,750,10150,50,10150"></polygon><text x="400" y="10000" fill="black" font-size="3.5em" text-anchor="middle" font-family="Helvetica">Victoria</text><text x="700" y="10100" fill="black" font-size="2em" text-anchor="end" font-family="Helvetica">AUG</text><text x="100" y="10100" fill="black" font-size="2em" font-family="Helvetica">P - EATER</text><circle stroke="black" stroke-width="3" fill="white" cx="100" cy="9900" r="20"></circle><circle stroke="black" stroke-width="3" fill="white" cx="700" cy="9900" r="20"></circle><polygon style="fill:rgb(255,255,255);stroke-width:3;stroke:rgb(0,0,0" points="50,10200,750,10200,750,10500,50,10500"></polygon><text x="400" y="10350" fill="black" font-size="3.5em" text-anchor="middle" font-family="Helvetica">Marjorie's Seedling</text><text x="700" y="10450" fill="black" font-size="2em" text-anchor="end" font-family="Helvetica">SEP</text><text x="100" y="10450" fill="black" font-size="2em" font-family="Helvetica">P - EATER</text><circle stroke="black" stroke-width="3" fill="white" cx="100" cy="10250" r="20"></circle><circle stroke="black" stroke-width="3" fill="white" cx="700" cy="10250" r="20"></circle><polygon style="fill:rgb(255,255,255);stroke-width:3;stroke:rgb(0,0,0" points="50,10550,750,10550,750,10850,50,10850"></polygon><text x="400" y="10700" fill="black" font-size="3.5em" text-anchor="middle" font-family="Helvetica">Apple</text><text x="700" y="10800" fill="black" font-size="2em" text-anchor="end" font-family="Helvetica"></text><text x="100" y="10800" fill="black" font-size="2em" font-family="Helvetica">A - </text><circle stroke="black" stroke-width="3" fill="white" cx="100" cy="10600" r="20"></circle><circle stroke="black" stroke-width="3" fill="white" cx="700" cy="10600" r="20"></circle></svg>